# AST/ASF file generated using VICON BodyLanguage
# -----------------------------------------------
:version 1.10
:name VICON
:units
  mass 1.0
  length 0.45
  angle deg
:documentation
   .ast/.asf automatically generated from VICON data using
   VICON BodyBuilder and BodyLanguage model FoxedUp or BRILLIANT.MOD
:root
   order TX TY TZ RX RY RZ
   axis XYZ
   position 0 0 0  
   orientation 0 0 0 
:bonedata
  begin
     id 1 
     name lhipjoint
     direction 0.650112 -0.723553 0.232005 
     length 2.45805 
     axis 0 0 0  XYZ
  end
  begin
     id 2 
     name lfemur
     direction 0.34202 -0.939693 0  
     length 7.00073  
     axis 0 0 20  XYZ
    dof rx ry rz
    limits (-160.0 20.0)
           (-70.0 70.0)
           (-60.0 70.0)
  end
  begin
     id 3 
     name ltibia
     direction 0.34202 -0.939693 0   
     length 7.8748   
     axis 0 0 20   XYZ
    dof rx
    limits (-10.0 170.0)
  end
  begin
     id 4 
     name lfoot
     direction 0.0542825 -0.14914 0.987325   
     length 1.75978   
     axis -90 7.62852e-016 20   XYZ
    dof rx rz
    limits (-45.0 90.0)
           (-70.0 20.0)
  end
  begin
     id 5 
     name ltoes
     direction 1.53509e-011 -4.21906e-011 1   
     length 0.893912   
     axis -90 7.62852e-016 20   XYZ
    dof rx
    limits (-90.0 20.0)
  end
  begin
     id 6 
     name rhipjoint
     direction -0.637897 -0.733345 0.235145   
     length 2.42522  
     axis 0 0 0  XYZ 
  end
  begin
     id 7 
     name rfemur
     direction -0.34202 -0.939693 0   
     length 7.02549   
     axis 0 0 -20   XYZ
    dof rx ry rz
    limits (-160.0 20.0)
           (-70.0 70.0)
           (-70.0 60.0)
  end
  begin
     id 8 
     name rtibia
     direction -0.34202 -0.939693 0   
     length 7.71512   
     axis 0 0 -20   XYZ
    dof rx
    limits (-10.0 170.0)
 end
 begin
     id 9 
     name rfoot
     direction -0.0822618 -0.226012 0.970645   
     length 1.90014  
     axis -90 -7.62852e-016 -20   XYZ
    dof rx rz
    limits (-45.0 90.0)
           (-20.0 70.0)
  end
  begin
     id 10 
     name rtoes
     direction -1.53542e-011 -4.21872e-011 1   
     length 0.957341   
     axis -90 -7.62852e-016 -20   XYZ
    dof rx
    limits (-90.0 20.0)
  end
  begin
     id 11 
     name lowerback
     direction -0.0022947 0.999774 -0.0211557   
     length 1.89909   
     axis 0 0 0   XYZ
    dof rx ry rz
    limits (-20.0 45.0)
           (-30.0 30.0)
           (-30.0 30.0)
  end
  begin
     id 12 
     name upperback
     direction 0.0107737 0.998635 0.0511027   
     length 1.8853   
     axis 0 0 0   XYZ
    dof rx ry rz
    limits (-20.0 45.0)
           (-30.0 30.0)
           (-30.0 30.0)
  end
  begin
     id 13 
     name thorax
     direction 0.011824 0.998136 0.0598754   
     length 1.88911   
     axis 0 0 0   XYZ
    dof rx ry rz
    limits (-20.0 45.0)
           (-30.0 30.0)
           (-30.0 30.0)
  end
  begin
     id 14 
     name lowerneck
     direction -0.0685355 0.990319 0.120714   
     length 1.91222   
     axis 0 0 0   XYZ
    dof rx ry rz
    limits (-20.0 45.0)
           (-30.0 30.0)
           (-30.0 30.0)
  end
  begin
     id 15 
     name upperneck
     direction 0.0886204 0.955665 -0.280805   
     length 1.92526   
     axis 0 0 0   XYZ
    dof rx ry rz
    limits (-20.0 45.0)
           (-30.0 30.0)
           (-30.0 30.0)
  end
  begin
     id 16
     name head
     direction 0.0233423 0.993502 -0.111393  
     length 1.96056  
     axis 0 0 0   XYZ
    dof rx ry rz
    limits (-20.0 45.0)
           (-30.0 30.0)
           (-30.0 30.0)
  end
  begin
     id 17 
     name lclavicle
     direction 0.941873 0.32922 0.0670041  
     length 3.31705  
     axis 0 0 0   XYZ
    dof ry rz
    limits (-20.0 10.0)
           (0.0 20.0)
  end
  begin
     id 18 
     name lhumerus
     direction 1 -4.4898e-011 3.38707e-028   
     length 5.29277   
     axis 180 -30 -90   XYZ
    dof rx ry rz
    limits (-60.0 90.0)
           (-90.0 90.0)
           (-90.0 90.0)
  end
  begin
     id 19
     name lradius
     direction 1 -4.48952e-011 1.63213e-028   
     length 2.85226   
     axis 180 -30 -90   XYZ
    dof rx
    limits (-10.0 170.0)
  end
  begin
     id 20
     name lwrist
     direction 1 -4.49001e-011 1.27856e-027   
     length 1.42613   
     axis -1.61767e-015 90 90   XYZ
    dof ry
    limits (-180.0 0.0)
 end
  begin
     id 21 
     name lhand
     direction 1 -4.48976e-011 2.55931e-027   
     length 0.602097   
     axis -1.63363e-015 90 90   XYZ
    dof rx rz
    limits (-90.0 90.0)
           (-45.0 45.0)
  end
  begin
     id 22 
     name lfingers
     direction 1 -4.48986e-011 5.11684e-027   
     length 0.485426   
     axis -3.26723e-015 90 90   XYZ
    dof rx
    limits (0.0 90.0)
  end
  begin
     id 23
     name lthumb
     direction 0.707107 -6.34915e-011 0.707107   
     length 0.696978   
     axis -90 45 -2.25915e-014   XYZ
    dof rx rz
    limits (-45.0 45.0)
           (-45.0 45.0)
  end
  begin
     id 24 
     name rclavicle
     direction -0.939974 0.327078 0.0973096   
     length 3.10337  
     axis 0 0 0   XYZ 
    dof ry rz
    limits (-10.0 20.0)
           (-20.0 0.0)
  end
  begin
     id 25 
     name rhumerus
     direction -1 -4.48975e-011 1.83745e-027  
     length 5.13304   
     axis 180 30 90   XYZ
    dof rx ry rz
    limits (-90.0 60.0)
           (-90.0 90.0)
           (-90.0 90.0)
  end
  begin
     id 26 
     name rradius
     direction -1 -4.48977e-011 7.1775e-029   
     length 2.74305   
     axis 180 30 90   XYZ
    dof rx
    limits (-10.0 170.0)
  end
  begin
     id 27 
     name rwrist
     direction -1 -4.48977e-011 1.27963e-027   
     length 1.37152   
     axis -1.61767e-015 -90 -90   XYZ
    dof ry
    limits (-180.0 0.0)
  end
  begin
     id 28
     name rhand
     direction -1 -4.4888e-011 2.56782e-027   
     length 0.767976   
     axis -1.63363e-015 -90 -90   XYZ
    dof rx rz
    limits (-90.0 90.0)
           (-45.0 45.0)
  end
  begin
     id 29
     name rfingers
     direction -1 -4.48947e-011 5.12384e-027   
     length 0.619162   
     axis -3.26723e-015 -90 -90   XYZ
    dof rx
    limits (0.0 90.0)
  end
  begin
     id 30
     name rthumb
     direction -0.707107 -6.34857e-011 0.707107   
     length 0.888997   
     axis -90 -45 2.25915e-014   XYZ
    dof rx rz
    limits (-45.0 45.0)
           (-45.0 45.0)
  end
:hierarchy
  begin
    root lhipjoint rhipjoint lowerback
    lhipjoint lfemur
    lfemur ltibia
    ltibia lfoot
    lfoot ltoes
    rhipjoint rfemur
    rfemur rtibia
    rtibia rfoot
    rfoot rtoes
    lowerback upperback
    upperback thorax
    thorax lowerneck lclavicle rclavicle
    lowerneck upperneck
    upperneck head
    lclavicle lhumerus
    lhumerus lradius
    lradius lwrist
    lwrist lhand lthumb
    lhand lfingers
    rclavicle rhumerus
    rhumerus rradius
    rradius rwrist
    rwrist rhand rthumb
    rhand rfingers
  end

#!OML:ASF F:\VICON\USERDATA\INSTALL\rory3\rory3.ASF
:FULLY-SPECIFIED
:DEGREES
553
root -0.164033 16.648 0.0100269 -0.441497 -17.8402 -4.13578
lowerback -5.1388 -2.12274 -5.52217
upperback -6.90338 -2.75375 0.204539
thorax -4.02878 -1.13864 3.25309
lowerneck -6.41701 -11.3105 -19.8519
upperneck 21.4128 -16.7916 14.9774
head 10.9572 -8.24158 6.40206
rclavicle -1.55052e-014 -6.36111e-015
rhumerus -0.226732 -0.0334657 -86.3507
rradius 133.376
rwrist 24.1836
rhand 47.057 9.76921
rfingers 7.12502
rthumb 67.9175 8.34899
lclavicle -1.55052e-014 -6.36111e-015
lhumerus 22.5725 -32.2088 89.0484
lradius 129.612
lwrist -8.67969
lhand 34.2214 42.2974
lfingers 7.12502
lthumb 57.4569 58.4963
rfemur -11.5208 10.4722 24.0149
rtibia 36.2309
rfoot -24.7052 0.55731
rtoes -14.1511
lfemur -7.59751 4.42294 -13.3205
ltibia 39.676
lfoot -28.1561 7.94369
ltoes -16.2542
554
root -0.154409 16.6378 0.00531808 -0.409439 -17.7073 -4.12893
lowerback -5.08281 -2.16057 -5.44407
upperback -6.89139 -2.80429 0.345917
thorax -4.03853 -1.16347 3.35706
lowerneck -6.69524 -11.243 -19.7076
upperneck 21.5467 -16.6893 15.0148
head 11.0289 -8.16553 6.40289
rclavicle -2.60408e-014 -9.54166e-015
rhumerus 1.09353 0.133781 -86.3968
rradius 133.117
rwrist 24.6352
rhand 46.7055 9.72054
rfingers 7.12502
rthumb 67.6616 7.70996
lclavicle -2.60408e-014 -9.54166e-015
lhumerus 20.5326 -32.2879 90.1119
lradius 129.899
lwrist -8.81678
lhand 34.6236 42.1708
lfingers 7.12502
lthumb 57.8088 58.0625
rfemur -11.6898 10.3789 23.9612
rtibia 36.4387
rfoot -24.7785 0.478289
rtoes -14.3946
lfemur -7.82478 4.41483 -13.3424
ltibia 39.8862
lfoot -28.2089 7.81216
ltoes -16.1398
555
root -0.143482 16.6264 0.00401417 -0.42562 -17.5332 -4.04694
lowerback -5.04928 -2.21031 -5.35572
upperback -6.84303 -2.87019 0.40682
thorax -3.9997 -1.20056 3.36944
lowerneck -6.87635 -11.1874 -19.4687
upperneck 21.5103 -16.6391 15.1426
head 11.0289 -8.10294 6.41474
rclavicle -6.75868e-015 1.19271e-014
rhumerus 2.54877 0.385593 -86.6205
rradius 132.856
rwrist 25.1199
rhand 46.066 9.87794
rfingers 7.12502
rthumb 67.1898 6.82875
lclavicle -6.75868e-015 1.19271e-014
lhumerus 18.4598 -32.2631 91.1305
lradius 130.302
lwrist -8.97199
lhand 34.8547 41.988
lfingers 7.12502
lthumb 58.0105 57.6999
rfemur -11.8176 10.2521 23.824
rtibia 36.6705
rfoot -24.8758 0.422411
rtoes -14.4824
lfemur -8.01836 4.41504 -13.4488
ltibia 40.1068
lfoot -28.2289 7.76626
ltoes -16.5718
556
root -0.133877 16.6181 0.00308027 -0.458541 -17.3331 -3.97449
lowerback -4.96452 -2.27786 -5.23972
upperback -6.81959 -2.9649 0.451174
thorax -4.01517 -1.25167 3.35129
lowerneck -6.9688 -11.1296 -19.2123
upperneck 21.4496 -16.6084 15.2851
head 11.0064 -8.05198 6.42957
rclavicle -1.14301e-013 -2.54444e-014
rhumerus 4.1445 0.707968 -86.9588
rradius 132.779
rwrist 25.3905
rhand 45.6853 9.84196
rfingers 7.12502
rthumb 66.9054 6.1953
lclavicle -1.14301e-013 -2.54444e-014
lhumerus 16.2896 -32.0288 92.1175
lradius 130.822
lwrist -9.01166
lhand 35.0804 42.111
lfingers 7.12502
lthumb 58.2072 57.645
rfemur -11.9127 10.1643 23.7196
rtibia 36.8965
rfoot -24.9621 0.304521
rtoes -14.396
lfemur -8.15767 4.37632 -13.5416
ltibia 40.3282
lfoot -28.2789 7.67268
ltoes -16.4962
557
root -0.124734 16.6105 4.06206e-005 -0.423579 -17.2175 -4.02121
lowerback -4.88706 -2.24619 -4.95067
upperback -6.82074 -2.93222 0.457416
thorax -4.07306 -1.24639 3.20047
lowerneck -6.97349 -11.1121 -18.8523
upperneck 21.3433 -16.6549 15.3954
head 10.9521 -8.03574 6.40415
rclavicle 1.27222e-014 1.51076e-014
rhumerus 5.8145 0.991992 -87.2469
rradius 132.848
rwrist 25.5206
rhand 45.5375 9.60131
rfingers 7.12502
rthumb 66.7942 5.72673
lclavicle 1.27222e-014 1.51076e-014
lhumerus 14.1089 -31.7557 93.1626
lradius 131.4
lwrist -8.91209
lhand 35.2052 42.8807
lfingers 7.12502
lthumb 58.3158 58.3153
rfemur -12.0467 10.1358 23.7412
rtibia 37.0949
rfoot -25.0116 0.170186
rtoes -14.5505
lfemur -8.33682 4.37395 -13.5082
ltibia 40.553
lfoot -28.3704 7.59037
ltoes -16.3473
558
root -0.116312 16.6033 -0.00388636 -0.370483 -17.2225 -4.06564
lowerback -4.75371 -2.12165 -4.60688
upperback -6.86805 -2.78337 0.389182
thorax -4.22655 -1.18462 2.9476
lowerneck -6.9321 -11.1169 -18.3689
upperneck 21.2983 -16.7807 15.5286
head 10.9176 -8.04801 6.35712
rclavicle 3.97569e-016 2.38542e-014
rhumerus 7.51685 1.22272 -87.6025
rradius 132.924
rwrist 25.8189
rhand 45.1011 9.74405
rfingers 7.12502
rthumb 66.4639 5.20979
lclavicle 3.97569e-016 2.38542e-014
lhumerus 11.8492 -31.3996 94.2864
lradius 132.061
lwrist -8.67478
lhand 35.1186 43.5896
lfingers 7.12502
lthumb 58.2404 59.0933
rfemur -12.2033 10.1784 23.7543
rtibia 37.2523
rfoot -25.0392 0.0514764
rtoes -15.0999
lfemur -8.52404 4.48127 -13.4698
ltibia 40.7572
lfoot -28.434 7.46684
ltoes -16.2368
559
root -0.10804 16.5981 -0.00763605 -0.272631 -17.2941 -4.17487
lowerback -4.70623 -2.01635 -4.20084
upperback -6.88728 -2.65259 0.392985
thorax -4.29782 -1.13603 2.72954
lowerneck -6.9857 -11.1039 -17.9859
upperneck 21.3096 -16.8535 15.6565
head 10.9213 -8.03856 6.33019
rclavicle -3.77691e-015 7.95139e-015
rhumerus 9.38559 1.67363 -88.0326
rradius 133.091
rwrist 26.0639
rhand 44.5188 9.96405
rfingers 7.12502
rthumb 66.018 4.57873
lclavicle -3.77691e-015 7.95139e-015
lhumerus 9.74559 -30.489 95.4038
lradius 132.673
lwrist -8.4312
lhand 35.3164 43.9532
lfingers 7.12502
lthumb 58.4125 59.2986
rfemur -12.3839 10.2726 23.8238
rtibia 37.3939
rfoot -25.0704 0.0578419
rtoes -15.2114
lfemur -8.70139 4.6243 -13.3674
ltibia 40.9238
lfoot -28.5017 7.37048
ltoes -16.1934
560
root -0.09884 16.5956 -0.0104989 -0.200621 -17.3045 -4.21365
lowerback -4.80332 -1.96926 -3.83508
upperback -6.83175 -2.58846 0.426272
thorax -4.20009 -1.12299 2.55582
lowerneck -6.97703 -11.0688 -17.7417
upperneck 21.1748 -16.8591 15.7989
head 10.8611 -8.01104 6.34229
rclavicle 1.61016e-014 2.14687e-014
rhumerus 11.3708 2.5305 -88.2864
rradius 133.391
rwrist 25.8676
rhand 44.288 9.3785
rfingers 7.12502
rthumb 65.8398 3.66487
lclavicle 1.61016e-014 2.14687e-014
lhumerus 7.79228 -29.2464 96.3366
lradius 133.18
lwrist -8.13838
lhand 35.4512 44.0474
lfingers 7.12502
lthumb 58.5296 59.2839
rfemur -12.5325 10.3418 23.8245
rtibia 37.5174
rfoot -25.1042 0.0130462
rtoes -15.1702
lfemur -8.85186 4.70199 -13.3528
ltibia 41.0364
lfoot -28.5313 7.43345
ltoes -16.5913
561
root -0.0892349 16.5946 -0.0122677 -0.16784 -17.2893 -4.0713
lowerback -4.88048 -1.94848 -3.64844
upperback -6.77796 -2.55798 0.463332
thorax -4.10672 -1.11794 2.48631
lowerneck -7.14531 -11.0501 -17.5674
upperneck 21.1959 -16.8536 15.8705
head 10.8907 -7.97866 6.33532
rclavicle 7.7526e-015 -1.66979e-014
rhumerus 13.398 3.78589 -88.3983
rradius 133.585
rwrist 25.8793
rhand 43.6234 9.00225
rfingers 7.12502
rthumb 65.3221 2.37084
lclavicle 7.7526e-015 -1.66979e-014
lhumerus 5.83095 -27.6798 97.2706
lradius 133.644
lwrist -7.68593
lhand 35.7038 43.8472
lfingers 7.12502
lthumb 58.7486 58.8773
rfemur -12.6893 10.3703 23.6324
rtibia 37.6106
rfoot -25.1145 -0.0138264
rtoes -15.0211
lfemur -8.99125 4.77162 -13.5396
ltibia 41.1022
lfoot -28.5116 7.50478
ltoes -16.7944
562
root -0.082149 16.5932 -0.0142477 -0.156269 -17.3321 -4.03821
lowerback -4.76957 -1.87109 -3.38138
upperback -6.82223 -2.4645 0.486175
thorax -4.22988 -1.07981 2.36758
lowerneck -7.27862 -11.0303 -17.3001
upperneck 21.4352 -16.8861 15.8586
head 10.9835 -7.96511 6.28263
rclavicle 2.32578e-014 1.35174e-014
rhumerus 15.2614 5.13924 -88.5744
rradius 133.735
rwrist 26.4288
rhand 42.2067 8.9892
rfingers 7.12502
rthumb 64.1972 0.530047
lclavicle 2.32578e-014 1.35174e-014
lhumerus 3.91462 -25.9153 98.2155
lradius 133.986
lwrist -7.51106
lhand 36.2512 43.7547
lfingers 7.12502
lthumb 59.2217 58.3268
rfemur -12.7579 10.5133 23.5899
rtibia 37.6656
rfoot -25.0956 -0.0705531
rtoes -14.9104
lfemur -9.0296 4.89523 -13.5823
ltibia 41.1222
lfoot -28.4944 7.37897
ltoes -16.4955
563
root -0.0780785 16.5922 -0.0168606 -0.130133 -17.414 -4.11865
lowerback -4.69694 -1.87613 -3.09357
upperback -6.87773 -2.47441 0.66806
thorax -4.33067 -1.09088 2.399
lowerneck -7.25994 -10.8843 -17.2288
upperneck 21.6007 -16.7236 15.8889
head 11.0043 -7.88314 6.31975
rclavicle -6.59965e-014 1.31198e-014
rhumerus 17.1131 6.66421 -88.6389
rradius 134.154
rwrist 26.2691
rhand 41.6497 8.40155
rfingers 7.12502
rthumb 63.7478 -0.731348
lclavicle -6.59965e-014 1.31198e-014
lhumerus 2.3394 -23.8205 98.7248
lradius 134.239
lwrist -7.74373
lhand 36.2633 44.0044
lfingers 7.12502
lthumb 59.2322 58.5662
rfemur -12.7799 10.7515 23.693
rtibia 37.678
rfoot -25.0575 -0.222531
rtoes -14.8291
lfemur -9.03069 5.04201 -13.4865
ltibia 41.1118
lfoot -28.4071 7.4325
ltoes -17.0977
564
root -0.0737085 16.5946 -0.0169339 -0.119415 -17.4671 -4.09049
lowerback -4.66826 -1.99741 -2.92864
upperback -6.86982 -2.62967 0.985868
thorax -4.32058 -1.16812 2.63473
lowerneck -7.5978 -10.7286 -17.4597
upperneck 21.8856 -16.4447 15.888
head 11.1437 -7.75257 6.40082
rclavicle -8.10048e-014 -1.35174e-014
rhumerus 19.1006 8.44126 -88.5877
rradius 134.672
rwrist 25.5466
rhand 41.5805 8.10218
rfingers 7.12502
rthumb 63.6917 -1.1127
lclavicle -8.10048e-014 -1.35174e-014
lhumerus 1.07743 -21.3274 99.0119
lradius 134.512
lwrist -7.96043
lhand 36.5399 44.2759
lfingers 7.12502
lthumb 59.4703 58.6005
rfemur -12.7893 10.9393 23.6715
rtibia 37.6426
rfoot -24.9284 -0.412754
rtoes -14.9884
lfemur -9.00715 5.1285 -13.5217
ltibia 41.0519
lfoot -28.3838 7.46659
ltoes -17.4094
